# xmcd CD database file
#
# Track frame offsets:
#	150
#	11877
#	23206
#	35971
#	49834
#	61833
#	72161
#	85253
#	97482
#	112130
#
# Disc length: 1641 seconds
#
# Revision: 0
# Processed by: cddbd v1.5.1PL2 Copyright (c) Steve Scherf et al.
# Submitted via: CDex 1.51
#
DISCID=9206670a
DTITLE=Various Artist - Country Ladies - Vol 2
DYEAR=1900
DGENRE=Country
TTITLE0=Patsy Cline - Walkin' After Midnight
TTITLE1=Kitty Wells - It Wasn't God Who Made Honky Tonk Angels
TTITLE2=Jeannie C. Riley - There Never Was A Time
TTITLE3=Jeannie Seely - Don't Touch Me
TTITLE4=Wanda Jackson - Right Or Wrong
TTITLE5=Jan Howard - Evil On Your Mind
TTITLE6=Margo Smith - Don't Break The Heart That Loves You
TTITLE7=Jeanne Pruett - Satin Sheets
TTITLE8=Marion Worth - Shake Me I Rattle (Squeeze Me I Cry)
TTITLE9=Jean Shepard - A Satisfied Mind
EXTD=
EXTT0=
EXTT1=
EXTT2=
EXTT3=
EXTT4=
EXTT5=
EXTT6=
EXTT7=
EXTT8=
EXTT9=
PLAYORDER=
